<?xml version="1.0" encoding="UTF-8"?>
<svg xmlns="http://www.w3.org/2000/svg" class="plot-d6a7b5" fill="currentColor" font-family="system-ui, sans-serif" font-size="10" text-anchor="middle" width="760" height="386" viewBox="0 0 760 386"><style>:where(.plot-d6a7b5) {
  --plot-background: white;
  display: block;
  height: auto;
  height: intrinsic;
  max-width: 100%;
}
:where(.plot-d6a7b5 text),
:where(.plot-d6a7b5 tspan) {
  white-space: pre;
}</style><g aria-label="y-axis tick" aria-hidden="true" fill="none" stroke="currentColor" transform="translate(0,12)"><path transform="translate(140,27)" d="M0,0L-6,0"/><path transform="translate(140,54)" d="M0,0L-6,0"/><path transform="translate(140,81)" d="M0,0L-6,0"/><path transform="translate(140,108)" d="M0,0L-6,0"/><path transform="translate(140,135)" d="M0,0L-6,0"/><path transform="translate(140,162)" d="M0,0L-6,0"/><path transform="translate(140,189)" d="M0,0L-6,0"/><path transform="translate(140,216)" d="M0,0L-6,0"/><path transform="translate(140,243)" d="M0,0L-6,0"/><path transform="translate(140,270)" d="M0,0L-6,0"/><path transform="translate(140,297)" d="M0,0L-6,0"/><path transform="translate(140,324)" d="M0,0L-6,0"/></g><g aria-label="y-axis tick label" text-anchor="end" transform="translate(-9,12)"><text y="0.32em" transform="translate(140,27)">медитация</text><text y="0.32em" transform="translate(140,54)">контактная импровизация</text><text y="0.32em" transform="translate(140,81)">безумие</text><text y="0.32em" transform="translate(140,108)">театр</text><text y="0.32em" transform="translate(140,135)">мужские круги</text><text y="0.32em" transform="translate(140,162)">клоунада</text><text y="0.32em" transform="translate(140,189)">випассана</text><text y="0.32em" transform="translate(140,216)">танцы</text><text y="0.32em" transform="translate(140,243)">ии</text><text y="0.32em" transform="translate(140,270)">продакт</text><text y="0.32em" transform="translate(140,297)">творчество</text><text y="0.32em" transform="translate(140,324)">карьера</text></g><g aria-label="x-grid" aria-hidden="true" stroke="currentColor" stroke-opacity="0.1"><line x1="140" x2="140" y1="20" y2="356"/><line x1="254.75409836065575" x2="254.75409836065575" y1="20" y2="356"/><line x1="369.5081967213115" x2="369.5081967213115" y1="20" y2="356"/><line x1="484.2622950819672" x2="484.2622950819672" y1="20" y2="356"/><line x1="599.016393442623" x2="599.016393442623" y1="20" y2="356"/></g><g aria-label="x-axis tick" aria-hidden="true" fill="none" stroke="currentColor"><path transform="translate(140,356)" d="M0,0L0,6"/><path transform="translate(254.75409836065575,356)" d="M0,0L0,6"/><path transform="translate(369.5081967213115,356)" d="M0,0L0,6"/><path transform="translate(484.2622950819672,356)" d="M0,0L0,6"/><path transform="translate(599.016393442623,356)" d="M0,0L0,6"/></g><g aria-label="x-axis tick label" font-variant="tabular-nums" transform="translate(0,9)"><text y="0.71em" transform="translate(140,356)">0.0</text><text y="0.71em" transform="translate(254.75409836065575,356)">0.5</text><text y="0.71em" transform="translate(369.5081967213115,356)">1.0</text><text y="0.71em" transform="translate(484.2622950819672,356)">1.5</text><text y="0.71em" transform="translate(599.016393442623,356)">2.0</text></g><g aria-label="x-axis label" text-anchor="end" transform="translate(57,27)"><text transform="translate(700,356)">средний ERR, % →</text></g><g aria-label="bar"><rect x="140" width="560" y="27" height="24" fill="#ea580c"/><rect x="140" width="548.5245901639344" y="54" height="24" fill="#db2777"/><rect x="140" width="505.20491803278685" y="81" height="24" fill="#ea580c"/><rect x="140" width="489.09404659188954" y="108" height="24" fill="#db2777"/><rect x="140" width="482.95081967213105" y="135" height="24" fill="#ea580c"/><rect x="140" width="475.4098360655738" y="162" height="24" fill="#db2777"/><rect x="140" width="474.3169398907104" y="189" height="24" fill="#ea580c"/><rect x="140" width="465.9016393442623" y="216" height="24" fill="#db2777"/><rect x="140" width="462.0176544766708" y="243" height="24" fill="#2563eb"/><rect x="140" width="459.0613950498232" y="270" height="24" fill="#2563eb"/><rect x="140" width="434.7093889716841" y="297" height="24" fill="#db2777"/><rect x="140" width="423.6551305403764" y="324" height="24" fill="#2563eb"/></g><g aria-label="text" fill="#0e0f10" text-anchor="start" font-size="11" transform="translate(6,12)"><text y="0.32em" transform="translate(700,27)">2.4% (3)</text><text y="0.32em" transform="translate(688.5245901639344,54)">2.4% (5)</text><text y="0.32em" transform="translate(645.2049180327868,81)">2.2% (8)</text><text y="0.32em" transform="translate(629.0940465918895,108)">2.1% (19)</text><text y="0.32em" transform="translate(622.950819672131,135)">2.1% (7)</text><text y="0.32em" transform="translate(615.4098360655738,162)">2.1% (7)</text><text y="0.32em" transform="translate(614.3169398907104,189)">2.1% (3)</text><text y="0.32em" transform="translate(605.9016393442623,216)">2.0% (9)</text><text y="0.32em" transform="translate(602.0176544766708,243)">2.0% (13)</text><text y="0.32em" transform="translate(599.0613950498232,270)">2.0% (51)</text><text y="0.32em" transform="translate(574.7093889716841,297)">1.9% (22)</text><text y="0.32em" transform="translate(563.6551305403764,324)">1.8% (54)</text></g></svg>