<?xml version="1.0" encoding="UTF-8"?>
<svg xmlns="http://www.w3.org/2000/svg" class="plot-d6a7b5" fill="currentColor" font-family="system-ui, sans-serif" font-size="10" text-anchor="middle" width="760" height="240" viewBox="0 0 760 240"><style>:where(.plot-d6a7b5) {
  --plot-background: white;
  display: block;
  height: auto;
  height: intrinsic;
  max-width: 100%;
}
:where(.plot-d6a7b5 text),
:where(.plot-d6a7b5 tspan) {
  white-space: pre;
}</style><g aria-label="y-grid" aria-hidden="true" stroke="currentColor" stroke-opacity="0.1"><line x1="40" x2="740" y1="205" y2="205"/><line x1="40" x2="740" y1="163.8888888888889" y2="163.8888888888889"/><line x1="40" x2="740" y1="122.77777777777779" y2="122.77777777777779"/><line x1="40" x2="740" y1="81.66666666666667" y2="81.66666666666667"/><line x1="40" x2="740" y1="40.55555555555557" y2="40.55555555555557"/></g><g aria-label="y-axis tick" aria-hidden="true" fill="none" stroke="currentColor"><path transform="translate(40,205)" d="M0,0L-6,0"/><path transform="translate(40,163.8888888888889)" d="M0,0L-6,0"/><path transform="translate(40,122.77777777777779)" d="M0,0L-6,0"/><path transform="translate(40,81.66666666666667)" d="M0,0L-6,0"/><path transform="translate(40,40.55555555555557)" d="M0,0L-6,0"/></g><g aria-label="y-axis tick label" text-anchor="end" font-variant="tabular-nums" transform="translate(-9,0)"><text y="0.32em" transform="translate(40,205)">0</text><text y="0.32em" transform="translate(40,163.8888888888889)">2</text><text y="0.32em" transform="translate(40,122.77777777777779)">4</text><text y="0.32em" transform="translate(40,81.66666666666667)">6</text><text y="0.32em" transform="translate(40,40.55555555555557)">8</text></g><g aria-label="y-axis label" text-anchor="start" transform="translate(-37,-17)"><text y="0.71em" transform="translate(40,20)">↑ постов в месяц</text></g><g aria-label="x-axis tick" aria-hidden="true" fill="none" stroke="currentColor"><path transform="translate(90.98261076703193,205)" d="M0,0L0,6"/><path transform="translate(212.7072415435922,205)" d="M0,0L0,6"/><path transform="translate(334.4318723201525,205)" d="M0,0L0,6"/><path transform="translate(456.1565030967127,205)" d="M0,0L0,6"/><path transform="translate(578.2146260123868,205)" d="M0,0L0,6"/><path transform="translate(699.9392567889472,205)" d="M0,0L0,6"/></g><g aria-label="x-axis tick label" font-variant="tabular-nums" transform="translate(0,9)"><text transform="translate(90.98261076703193,205)"><tspan x="0" y="0.71em">Jan</tspan><tspan x="0" dy="1em">2021</tspan></text><text transform="translate(212.7072415435922,205)"><tspan x="0" y="0.71em">Jan</tspan><tspan x="0" dy="1em">2022</tspan></text><text transform="translate(334.4318723201525,205)"><tspan x="0" y="0.71em">Jan</tspan><tspan x="0" dy="1em">2023</tspan></text><text transform="translate(456.1565030967127,205)"><tspan x="0" y="0.71em">Jan</tspan><tspan x="0" dy="1em">2024</tspan></text><text transform="translate(578.2146260123868,205)"><tspan x="0" y="0.71em">Jan</tspan><tspan x="0" dy="1em">2025</tspan></text><text transform="translate(699.9392567889472,205)"><tspan x="0" y="0.71em">Jan</tspan><tspan x="0" dy="1em">2026</tspan></text></g><g aria-label="area" fill="#2563eb" fill-opacity="0.18"><path d="M40,40.556L50.338,81.667L60.343,184.444L80.686,102.222L91.024,20L121.039,184.444L141.382,184.444L151.386,122.778L161.725,184.444L172.063,184.444L182.068,184.444L192.406,184.444L202.411,163.889L212.749,102.222L223.087,163.889L232.425,143.333L242.763,122.778L252.768,143.333L263.106,184.444L273.111,163.889L314.131,163.889L324.135,163.889L334.474,184.444L344.812,184.444L354.15,184.444L364.488,184.444L374.493,184.444L384.831,184.444L405.174,143.333L425.517,184.444L456.198,184.444L466.536,163.889L476.208,184.444L486.546,143.333L496.551,143.333L506.889,143.333L516.894,102.222L527.232,102.222L537.57,163.889L547.575,40.556L557.913,143.333L567.918,102.222L578.256,20L588.595,163.889L597.932,61.111L608.271,143.333L618.275,81.667L628.614,122.778L638.618,143.333L648.957,143.333L659.295,102.222L669.3,81.667L679.638,163.889L689.643,163.889L699.981,122.778L710.319,102.222L719.657,61.111L729.995,102.222L740,184.444L740,205L729.995,205L719.657,205L710.319,205L699.981,205L689.643,205L679.638,205L669.3,205L659.295,205L648.957,205L638.618,205L628.614,205L618.275,205L608.271,205L597.932,205L588.595,205L578.256,205L567.918,205L557.913,205L547.575,205L537.57,205L527.232,205L516.894,205L506.889,205L496.551,205L486.546,205L476.208,205L466.536,205L456.198,205L425.517,205L405.174,205L384.831,205L374.493,205L364.488,205L354.15,205L344.812,205L334.474,205L324.135,205L314.131,205L273.111,205L263.106,205L252.768,205L242.763,205L232.425,205L223.087,205L212.749,205L202.411,205L192.406,205L182.068,205L172.063,205L161.725,205L151.386,205L141.382,205L121.039,205L91.024,205L80.686,205L60.343,205L50.338,205L40,205Z"/></g><g aria-label="line" fill="none" stroke="#2563eb" stroke-width="2" stroke-linejoin="round" stroke-linecap="round"><path d="M40,40.556L50.338,81.667L60.343,184.444L80.686,102.222L91.024,20L121.039,184.444L141.382,184.444L151.386,122.778L161.725,184.444L172.063,184.444L182.068,184.444L192.406,184.444L202.411,163.889L212.749,102.222L223.087,163.889L232.425,143.333L242.763,122.778L252.768,143.333L263.106,184.444L273.111,163.889L314.131,163.889L324.135,163.889L334.474,184.444L344.812,184.444L354.15,184.444L364.488,184.444L374.493,184.444L384.831,184.444L405.174,143.333L425.517,184.444L456.198,184.444L466.536,163.889L476.208,184.444L486.546,143.333L496.551,143.333L506.889,143.333L516.894,102.222L527.232,102.222L537.57,163.889L547.575,40.556L557.913,143.333L567.918,102.222L578.256,20L588.595,163.889L597.932,61.111L608.271,143.333L618.275,81.667L628.614,122.778L638.618,143.333L648.957,143.333L659.295,102.222L669.3,81.667L679.638,163.889L689.643,163.889L699.981,122.778L710.319,102.222L719.657,61.111L729.995,102.222L740,184.444"/></g><g aria-label="dot" fill="#2563eb"><circle cx="40" cy="40.55555555555557" r="2.5"/><circle cx="50.33825631252978" cy="81.66666666666667" r="2.5"/><circle cx="60.34302048594569" cy="184.44444444444443" r="2.5"/><circle cx="80.68604097189137" cy="102.22222222222221" r="2.5"/><circle cx="91.02429728442115" cy="20" r="2.5"/><circle cx="121.03858980466889" cy="184.44444444444443" r="2.5"/><circle cx="141.3816102906146" cy="184.44444444444443" r="2.5"/><circle cx="151.3863744640305" cy="122.77777777777779" r="2.5"/><circle cx="161.72463077656025" cy="184.44444444444443" r="2.5"/><circle cx="172.06288708909005" cy="184.44444444444443" r="2.5"/><circle cx="182.06765126250596" cy="184.44444444444443" r="2.5"/><circle cx="192.4059075750357" cy="184.44444444444443" r="2.5"/><circle cx="202.41067174845165" cy="163.8888888888889" r="2.5"/><circle cx="212.74892806098143" cy="102.22222222222221" r="2.5"/><circle cx="223.08718437351118" cy="163.8888888888889" r="2.5"/><circle cx="232.4249642686994" cy="143.33333333333334" r="2.5"/><circle cx="242.76322058122918" cy="122.77777777777779" r="2.5"/><circle cx="252.76798475464508" cy="143.33333333333334" r="2.5"/><circle cx="263.10624106717484" cy="184.44444444444443" r="2.5"/><circle cx="273.11100524059077" cy="163.8888888888889" r="2.5"/><circle cx="314.13053835159604" cy="163.8888888888889" r="2.5"/><circle cx="324.1353025250119" cy="163.8888888888889" r="2.5"/><circle cx="334.47355883754165" cy="184.44444444444443" r="2.5"/><circle cx="344.8118151500714" cy="184.44444444444443" r="2.5"/><circle cx="354.1495950452597" cy="184.44444444444443" r="2.5"/><circle cx="364.48785135778945" cy="184.44444444444443" r="2.5"/><circle cx="374.49261553120533" cy="184.44444444444443" r="2.5"/><circle cx="384.8308718437351" cy="184.44444444444443" r="2.5"/><circle cx="405.1738923296808" cy="143.33333333333334" r="2.5"/><circle cx="425.5169128156264" cy="184.44444444444443" r="2.5"/><circle cx="456.198189614102" cy="184.44444444444443" r="2.5"/><circle cx="466.53644592663176" cy="163.8888888888889" r="2.5"/><circle cx="476.2077179609338" cy="184.44444444444443" r="2.5"/><circle cx="486.5459742734635" cy="143.33333333333334" r="2.5"/><circle cx="496.5507384468795" cy="143.33333333333334" r="2.5"/><circle cx="506.88899475940923" cy="143.33333333333334" r="2.5"/><circle cx="516.8937589328251" cy="102.22222222222221" r="2.5"/><circle cx="527.232015245355" cy="102.22222222222221" r="2.5"/><circle cx="537.5702715578847" cy="163.8888888888889" r="2.5"/><circle cx="547.5750357313007" cy="40.55555555555557" r="2.5"/><circle cx="557.9132920438303" cy="143.33333333333334" r="2.5"/><circle cx="567.9180562172464" cy="102.22222222222221" r="2.5"/><circle cx="578.2563125297761" cy="20" r="2.5"/><circle cx="588.5945688423058" cy="163.8888888888889" r="2.5"/><circle cx="597.9323487374941" cy="61.11111111111111" r="2.5"/><circle cx="608.2706050500238" cy="143.33333333333334" r="2.5"/><circle cx="618.2753692234397" cy="81.66666666666667" r="2.5"/><circle cx="628.6136255359696" cy="122.77777777777779" r="2.5"/><circle cx="638.6183897093854" cy="143.33333333333334" r="2.5"/><circle cx="648.9566460219153" cy="143.33333333333334" r="2.5"/><circle cx="659.2949023344449" cy="102.22222222222221" r="2.5"/><circle cx="669.2996665078608" cy="81.66666666666667" r="2.5"/><circle cx="679.6379228203906" cy="163.8888888888889" r="2.5"/><circle cx="689.6426869938066" cy="163.8888888888889" r="2.5"/><circle cx="699.9809433063364" cy="122.77777777777779" r="2.5"/><circle cx="710.3191996188662" cy="102.22222222222221" r="2.5"/><circle cx="719.6569795140543" cy="61.11111111111111" r="2.5"/><circle cx="729.9952358265841" cy="102.22222222222221" r="2.5"/><circle cx="740" cy="184.44444444444443" r="2.5"/></g></svg>