<?xml version="1.0" encoding="UTF-8"?>
<svg xmlns="http://www.w3.org/2000/svg" class="plot-d6a7b5" fill="currentColor" font-family="system-ui, sans-serif" font-size="10" text-anchor="middle" width="760" height="280" viewBox="0 0 760 280"><style>:where(.plot-d6a7b5) {
  --plot-background: white;
  display: block;
  height: auto;
  height: intrinsic;
  max-width: 100%;
}
:where(.plot-d6a7b5 text),
:where(.plot-d6a7b5 tspan) {
  white-space: pre;
}</style><g aria-label="y-axis tick" aria-hidden="true" fill="none" stroke="currentColor" transform="translate(0,12.5)"><path transform="translate(40,24)" d="M0,0L-6,0"/><path transform="translate(40,52)" d="M0,0L-6,0"/><path transform="translate(40,80)" d="M0,0L-6,0"/><path transform="translate(40,108)" d="M0,0L-6,0"/><path transform="translate(40,136)" d="M0,0L-6,0"/><path transform="translate(40,164)" d="M0,0L-6,0"/><path transform="translate(40,192)" d="M0,0L-6,0"/><path transform="translate(40,220)" d="M0,0L-6,0"/></g><g aria-label="y-axis tick label" text-anchor="end" transform="translate(-9,12.5)"><text y="0.32em" transform="translate(40,24)">🐳</text><text y="0.32em" transform="translate(40,52)">🔥</text><text y="0.32em" transform="translate(40,80)">❤</text><text y="0.32em" transform="translate(40,108)">👍</text><text y="0.32em" transform="translate(40,136)">😁</text><text y="0.32em" transform="translate(40,164)">😢</text><text y="0.32em" transform="translate(40,192)">🤡</text><text y="0.32em" transform="translate(40,220)">?</text></g><g aria-label="x-axis tick" aria-hidden="true" fill="none" stroke="currentColor"><path transform="translate(40,250)" d="M0,0L0,6"/><path transform="translate(118.66507747318236,250)" d="M0,0L0,6"/><path transform="translate(197.33015494636473,250)" d="M0,0L0,6"/><path transform="translate(275.9952324195471,250)" d="M0,0L0,6"/><path transform="translate(354.66030989272946,250)" d="M0,0L0,6"/><path transform="translate(433.3253873659118,250)" d="M0,0L0,6"/><path transform="translate(511.9904648390942,250)" d="M0,0L0,6"/><path transform="translate(590.6555423122766,250)" d="M0,0L0,6"/><path transform="translate(669.3206197854589,250)" d="M0,0L0,6"/></g><g aria-label="x-axis tick label" font-variant="tabular-nums" transform="translate(0,9)"><text y="0.71em" transform="translate(40,250)">0</text><text y="0.71em" transform="translate(118.66507747318236,250)">100</text><text y="0.71em" transform="translate(197.33015494636473,250)">200</text><text y="0.71em" transform="translate(275.9952324195471,250)">300</text><text y="0.71em" transform="translate(354.66030989272946,250)">400</text><text y="0.71em" transform="translate(433.3253873659118,250)">500</text><text y="0.71em" transform="translate(511.9904648390942,250)">600</text><text y="0.71em" transform="translate(590.6555423122766,250)">700</text><text y="0.71em" transform="translate(669.3206197854589,250)">800</text></g><g aria-label="x-axis label" text-anchor="end" transform="translate(57,27)"><text transform="translate(700,250)">количество реакций →</text></g><g aria-label="bar" fill="#db2777"><rect x="40" width="660" y="24" height="25"/><rect x="40" width="313.87365911799765" y="52" height="25"/><rect x="40" width="218.68891537544698" y="80" height="25"/><rect x="40" width="195.08939213349225" y="108" height="25"/><rect x="40" width="32.25268176400476" y="136" height="25"/><rect x="40" width="25.17282479141835" y="164" height="25"/><rect x="40" width="23.599523241954714" y="192" height="25"/><rect x="40" width="17.306317044100126" y="220" height="25"/></g><g aria-label="text" fill="#0e0f10" text-anchor="start" transform="translate(8,12.5)"><text y="0.32em" transform="translate(700,24)">839</text><text y="0.32em" transform="translate(353.87365911799765,52)">399</text><text y="0.32em" transform="translate(258.688915375447,80)">278</text><text y="0.32em" transform="translate(235.08939213349225,108)">248</text><text y="0.32em" transform="translate(72.25268176400476,136)">41</text><text y="0.32em" transform="translate(65.17282479141835,164)">32</text><text y="0.32em" transform="translate(63.599523241954714,192)">30</text><text y="0.32em" transform="translate(57.306317044100126,220)">22</text></g></svg>