<?xml version="1.0" encoding="UTF-8"?>
<svg xmlns="http://www.w3.org/2000/svg" class="plot-d6a7b5" fill="currentColor" font-family="system-ui, sans-serif" font-size="10" text-anchor="middle" width="760" height="360" viewBox="0 0 760 360"><style>:where(.plot-d6a7b5) {
  --plot-background: white;
  display: block;
  height: auto;
  height: intrinsic;
  max-width: 100%;
}
:where(.plot-d6a7b5 text),
:where(.plot-d6a7b5 tspan) {
  white-space: pre;
}</style><g aria-label="y-axis tick" aria-hidden="true" fill="none" stroke="currentColor" transform="translate(0,13.5)"><path transform="translate(280,27)" d="M0,0L-6,0"/><path transform="translate(280,57)" d="M0,0L-6,0"/><path transform="translate(280,87)" d="M0,0L-6,0"/><path transform="translate(280,117)" d="M0,0L-6,0"/><path transform="translate(280,147)" d="M0,0L-6,0"/><path transform="translate(280,177)" d="M0,0L-6,0"/><path transform="translate(280,207)" d="M0,0L-6,0"/><path transform="translate(280,237)" d="M0,0L-6,0"/><path transform="translate(280,267)" d="M0,0L-6,0"/><path transform="translate(280,297)" d="M0,0L-6,0"/></g><g aria-label="y-axis tick label" text-anchor="end" transform="translate(-9,13.5)"><text y="0.32em" transform="translate(280,27)">Мой опыт поступления по проектам на грант в топ-ВУЗы: МФТ…</text><text y="0.32em" transform="translate(280,57)">Давайте знакомиться — я Вова, и я меняюсь ☀️</text><text y="0.32em" transform="translate(280,87)">random-coffee боты как способ знакомиться с интересными л…</text><text y="0.32em" transform="translate(280,117)">Почему я решил стать продакт-менеджером (PM)?</text><text y="0.32em" transform="translate(280,147)">Я в Яндексе, стажёр менеджер продукта</text><text y="0.32em" transform="translate(280,177)">Фреймворк хорошего состояния и куча ссылок на комьюнити п…</text><text y="0.32em" transform="translate(280,207)">Как я собрал свой кейс-клуб для подготовки к интервью</text><text y="0.32em" transform="translate(280,237)">Как найти работу стажером/джуном продактом</text><text y="0.32em" transform="translate(280,267)">Продукт кемп лето 2023 это какой-то трип на 2 дня в хорош…</text><text y="0.32em" transform="translate(280,297)">📍 Самые популярные посты в этом канале:</text></g><g aria-label="x-grid" aria-hidden="true" stroke="currentColor" stroke-opacity="0.1"><line x1="280" x2="280" y1="20" y2="330"/><line x1="344.07322654462246" x2="344.07322654462246" y1="20" y2="330"/><line x1="408.14645308924486" x2="408.14645308924486" y1="20" y2="330"/><line x1="472.21967963386726" x2="472.21967963386726" y1="20" y2="330"/><line x1="536.2929061784897" x2="536.2929061784897" y1="20" y2="330"/><line x1="600.3661327231121" x2="600.3661327231121" y1="20" y2="330"/><line x1="664.4393592677346" x2="664.4393592677346" y1="20" y2="330"/></g><g aria-label="x-axis tick" aria-hidden="true" fill="none" stroke="currentColor"><path transform="translate(280,330)" d="M0,0L0,6"/><path transform="translate(344.07322654462246,330)" d="M0,0L0,6"/><path transform="translate(408.14645308924486,330)" d="M0,0L0,6"/><path transform="translate(472.21967963386726,330)" d="M0,0L0,6"/><path transform="translate(536.2929061784897,330)" d="M0,0L0,6"/><path transform="translate(600.3661327231121,330)" d="M0,0L0,6"/><path transform="translate(664.4393592677346,330)" d="M0,0L0,6"/></g><g aria-label="x-axis tick label" font-variant="tabular-nums" transform="translate(0,9)"><text y="0.71em" transform="translate(280,330)">0k</text><text y="0.71em" transform="translate(344.07322654462246,330)">1k</text><text y="0.71em" transform="translate(408.14645308924486,330)">2k</text><text y="0.71em" transform="translate(472.21967963386726,330)">3k</text><text y="0.71em" transform="translate(536.2929061784897,330)">4k</text><text y="0.71em" transform="translate(600.3661327231121,330)">5k</text><text y="0.71em" transform="translate(664.4393592677346,330)">6k</text></g><g aria-label="x-axis label" text-anchor="end" transform="translate(57,27)"><text transform="translate(700,330)">просмотры →</text></g><g aria-label="bar" fill="#2563eb"><rect x="280" width="420" y="27" height="27"/><rect x="280" width="397.9588100686499" y="57" height="27"/><rect x="280" width="371.6887871853546" y="87" height="27"/><rect x="280" width="348.045766590389" y="117" height="27"/><rect x="280" width="344.4576659038902" y="147" height="27"/><rect x="280" width="313.2540045766591" y="177" height="27"/><rect x="280" width="310.17848970251714" y="207" height="27"/><rect x="280" width="294.2883295194508" y="237" height="27"/><rect x="280" width="287.6887871853547" y="267" height="27"/><rect x="280" width="286.0869565217391" y="297" height="27"/></g><g aria-label="text" fill="#0e0f10" text-anchor="start" font-size="11" transform="translate(6,13.5)"><text y="0.32em" transform="translate(700,27)">6.6K</text><text y="0.32em" transform="translate(677.9588100686499,57)">6.2K</text><text y="0.32em" transform="translate(651.6887871853546,87)">5.8K</text><text y="0.32em" transform="translate(628.045766590389,117)">5.4K</text><text y="0.32em" transform="translate(624.4576659038902,147)">5.4K</text><text y="0.32em" transform="translate(593.2540045766591,177)">4.9K</text><text y="0.32em" transform="translate(590.1784897025171,207)">4.8K</text><text y="0.32em" transform="translate(574.2883295194508,237)">4.6K</text><text y="0.32em" transform="translate(567.6887871853547,267)">4.5K</text><text y="0.32em" transform="translate(566.0869565217391,297)">4.5K</text></g></svg>